# xmcd
#
# Track frame offsets: 
#        150
#        19674
#        43510
#
# Disc length: 909 seconds
#
# Revision: 4
# Processed by: cddbd v1.5.2PL0 Copyright (c) Steve Scherf et al.
# Submitted via: ExactAudioCopy v1.0b3
#
DISCID=19038b03
DTITLE=茅原実里 - TERMINATED
DYEAR=2011
DGENRE=seiyu
TTITLE0=TERMINATED
TTITLE1=巡り逢い～かけがえのないもの～
TTITLE2=HYPER NEW WORLD
EXTD=YEAR: 2011
EXTT0=
EXTT1=
EXTT2=
PLAYORDER=
